<?xml version="1.0" encoding="iso-8859-1"?>
<!-- Generator: Adobe Illustrator 19.0.0, SVG Export Plug-In . SVG Version: 6.00 Build 0)  -->
<svg xmlns="http://www.w3.org/2000/svg" xmlns:xlink="http://www.w3.org/1999/xlink" version="1.1" id="Layer_1" x="0px" y="0px" viewBox="0 0 512 512" style="enable-background:new 0 0 512 512;" xml:space="preserve" width="512px" height="512px">
<g>
	<g>
		<path d="M464.373,35.234h-12.692c-4.611,0-8.348,3.737-8.348,8.348s3.737,8.348,8.348,8.348h12.692    c4.611,0,8.348-3.737,8.348-8.348S468.984,35.234,464.373,35.234z" fill="#FFFFFF"/>
	</g>
</g>
<g>
	<g>
		<path d="M419.295,35.234h-12.692c-4.611,0-8.348,3.737-8.348,8.348s3.736,8.348,8.348,8.348h12.692    c4.611,0,8.348-3.737,8.348-8.348S423.906,35.234,419.295,35.234z" fill="#FFFFFF"/>
	</g>
</g>
<g>
	<g>
		<path d="M373.103,35.234h-12.692c-4.611,0-8.348,3.737-8.348,8.348s3.736,8.348,8.348,8.348h12.692    c4.611,0,8.348-3.737,8.348-8.348S377.715,35.234,373.103,35.234z" fill="#FFFFFF"/>
	</g>
</g>
<g>
	<g>
		<path d="M503.652,2.531H269.216H8.348C3.736,2.531,0,6.267,0,10.878v65.407v424.836c0,4.611,3.737,8.348,8.348,8.348h370.29    c4.611,0,8.348-3.736,8.348-8.348c0-4.611-3.736-8.348-8.348-8.348H16.696V84.633h252.521h226.088v408.141h-66.293    c-4.611,0-8.348,3.736-8.348,8.348c0,4.611,3.737,8.348,8.348,8.348h74.641c4.611,0,8.348-3.736,8.348-8.348V76.285V10.878    C512,6.268,508.263,2.531,503.652,2.531z M260.868,67.937H16.696V19.226h244.173V67.937z M495.304,67.937h-217.74V19.226h217.74    V67.937z" fill="#FFFFFF"/>
	</g>
</g>
<g>
	<g>
		<path d="M208.923,205.29c-14.883,0-26.991,12.109-26.991,26.991s12.109,26.991,26.991,26.991s26.991-12.109,26.991-26.991    S223.805,205.29,208.923,205.29z M208.923,242.577c-5.678,0-10.296-4.618-10.296-10.296c0-5.678,4.619-10.296,10.296-10.296    c5.678,0,10.296,4.618,10.296,10.296C219.218,237.959,214.6,242.577,208.923,242.577z" fill="#FFFFFF"/>
	</g>
</g>
<g>
	<g>
		<path d="M410.174,210.929c-0.197-0.577-0.454-1.131-0.772-1.653c-16.799-35.095-45.294-63.564-80.406-80.333    c-0.467-0.276-0.959-0.511-1.48-0.692c-21.751-10.131-45.981-15.802-71.515-15.802c-25.522,0-49.743,5.665-71.486,15.787    c-0.564,0.195-1.109,0.447-1.622,0.758c-35.071,16.78-63.527,45.236-80.306,80.307c-0.31,0.512-0.562,1.055-0.757,1.618    c-10.123,21.744-15.789,45.965-15.789,71.489c0,25.553,5.679,49.801,15.824,71.564c0.175,0.49,0.395,0.956,0.654,1.399    c16.76,35.114,45.22,63.613,80.307,80.42c0.509,0.315,1.055,0.557,1.616,0.756c21.762,10.143,46.007,15.822,71.558,15.822    c25.512,0,49.724-5.661,71.461-15.776c0.559-0.191,1.086-0.442,1.584-0.741c17.744-8.481,33.795-19.949,47.501-33.753    c0.297-0.23,0.586-0.474,0.854-0.748c13.253-13.523,24.057-29.092,32.085-45.952c10.727-18.375,16.475-51.482,16.475-72.989    C425.96,256.89,420.295,232.671,410.174,210.929z M169.804,155.748c-3.841,9.974-7.223,20.116-10.126,30.352    c-10.228,2.897-20.364,6.274-30.338,10.114C140.179,180.334,153.924,166.589,169.804,155.748z M116.067,219.917    c12.621-5.788,25.613-10.81,38.814-14.974c-5.121,22.753-7.955,45.913-8.504,69.119h-43.412    C104.001,254.871,108.583,236.608,116.067,219.917z M102.965,290.758h43.412c0.549,23.203,3.383,46.36,8.503,69.112    c-13.221-4.172-26.214-9.193-38.815-14.972C108.582,328.207,104.001,309.946,102.965,290.758z M129.333,368.599    c9.967,3.837,20.107,7.215,30.346,10.118c2.905,10.247,6.284,20.388,10.121,30.353    C153.919,398.226,140.174,384.48,129.333,368.599z M247.652,435.444c-19.193-1.035-37.457-5.619-54.151-13.103    c-5.777-12.595-10.799-25.59-14.974-38.821c22.754,5.129,45.913,7.968,69.124,8.517V435.444z M247.652,375.336    c-25.012-0.621-49.966-4.027-74.359-10.231c-6.194-24.392-9.596-49.342-10.216-74.348h84.575V375.336z M247.652,274.062h-84.576    c0.62-25.012,4.023-49.967,10.219-74.36c24.393-6.194,49.346-9.598,74.357-10.217V274.062z M247.652,172.784    c-23.207,0.548-46.367,3.381-69.12,8.503c4.171-13.206,9.192-26.198,14.975-38.81c16.691-7.484,34.954-12.067,54.145-13.102    V172.784z M399.312,228.093c-11.189-8.888-25.187-14.372-40.431-14.886c-0.553-2.764-1.15-5.52-1.77-8.272    c13.227,4.173,26.221,9.194,38.817,14.967C397.134,222.593,398.259,225.325,399.312,228.093z M408.135,274.062h-42.514    c-0.348-14.699-1.604-29.38-3.788-43.95C385.496,232.509,404.54,250.769,408.135,274.062z M362.101,358.249    c-1.658,0.552-3.316,1.104-4.982,1.63c0.368-1.638,0.726-3.278,1.071-4.92C359.848,355.563,361.232,356.738,362.101,358.249z     M382.655,196.205c-9.964-3.834-20.104-7.213-30.347-10.116c-2.903-10.238-6.281-20.377-10.116-30.343    C358.071,166.584,371.814,180.327,382.655,196.205z M337.585,274.062c0.037-0.54,0.061-1.083,0.061-1.633v-3.573    c0-13.305-10.825-24.131-24.165-24.131c-4.1,0-7.435-3.34-7.435-7.446c0-4.1,3.335-7.435,7.435-7.435h31.41    c2.32,14.65,3.663,29.423,4.03,44.218H337.585z M348.921,290.758c-0.39,15.747-1.878,31.472-4.479,47.052h-30.962    c-4.1,0-7.435-3.335-7.435-7.435v-26.368c0-4.105,3.335-7.445,7.469-7.445c5.978,0,11.451-2.189,15.672-5.803H348.921z     M341.815,213.148h-28.334c-13.305,0-24.131,10.825-24.131,24.131c0,13.312,10.825,24.142,24.164,24.142    c4.1,0,7.436,3.335,7.436,7.435v3.573c0,0.561-0.068,1.106-0.186,1.633h-56.417v-84.577c25.005,0.621,49.955,4.021,74.348,10.215    C339.83,204.165,340.866,208.649,341.815,213.148z M264.347,129.375c19.191,1.035,37.453,5.616,54.144,13.101    c5.778,12.602,10.799,25.594,14.969,38.813c-22.752-5.12-45.91-7.955-69.113-8.504V129.375z M318.494,422.343    c-16.692,7.484-34.955,12.067-54.146,13.102v-43.406c23.201-0.549,46.364-3.385,69.117-8.508    C329.288,396.75,324.267,409.744,318.494,422.343z M338.705,365.114c-24.397,6.199-49.35,9.602-74.357,10.222v-84.579h0h28.976    c-2.508,3.807-3.974,8.359-3.974,13.249v26.368c0,13.305,10.826,24.131,24.131,24.131h27.734    C340.435,358.052,339.6,361.589,338.705,365.114z M363.09,391.938c-6.443,6.301-13.433,12.042-20.9,17.139    c3.836-9.967,7.217-20.107,10.126-30.349c3.604-1.023,7.198-2.089,10.773-3.229V391.938z M379.786,372.669v-2.972    c0.959-0.36,1.918-0.72,2.874-1.087C381.725,369.979,380.764,371.331,379.786,372.669z M408.748,294.954    c-1.404,17.232-5.748,34.176-12.818,49.957c-5.931,2.72-11.946,5.283-18.04,7.654c-2.96-6.992-9.126-12.304-16.643-14.094    c2.541-15.806,3.998-31.75,4.375-47.713h43.126V294.954z" fill="#FFFFFF"/>
	</g>
</g>
<g>
	<g>
		<path d="M175.884,35.234H47.525c-4.611,0-8.348,3.737-8.348,8.348s3.736,8.348,8.348,8.348h128.358    c4.611,0,8.348-3.737,8.348-8.348S180.494,35.234,175.884,35.234z" fill="#FFFFFF"/>
	</g>
</g>
<g>
</g>
<g>
</g>
<g>
</g>
<g>
</g>
<g>
</g>
<g>
</g>
<g>
</g>
<g>
</g>
<g>
</g>
<g>
</g>
<g>
</g>
<g>
</g>
<g>
</g>
<g>
</g>
<g>
</g>
</svg>
